<?xml version="1.0" standalone="no"?>
<svg xmlns:xlink="http://www.w3.org/1999/xlink" xmlns="http://www.w3.org/2000/svg" width="24" height="24" fill="none" viewBox="0 0 24 24"><path fill="#9e9e9e" fill-rule="evenodd" d="M22.504 11.36c0 5.444-4.414 9.858-9.859 9.858a9.818 9.818 0 01-4.371-1.02L2.246 22.5l-.75-.883 2.398-5.713a9.817 9.817 0 01-1.108-4.545c0-5.445 4.414-9.859 9.86-9.859 5.444 0 9.858 4.414 9.858 9.86zm-1.519.008a8.34 8.34 0 01-12.652 7.139l-4.447 1.822 1.8-4.366a8.34 8.34 0 1115.299-4.596z" clip-rule="evenodd"/><path fill="#9e9e9e" d="M18.258 8.885H7.571v1.5h10.687v-1.5zM14.25 12.885H7.571v1.5h6.68v-1.5z"/></svg>