<svg width="120" height="40" viewBox="0 0 120 40" fill="none" xmlns="http://www.w3.org/2000/svg">
    <path class=""
        d="M32.0282 10.8876V29.1124C32.0282 30.7071 30.7337 32 29.1372 32H19.8938C18.2837 32 16.9789 30.6967 16.9789 29.0885V21.3133C16.9789 20.5966 16.3972 20.01 15.682 20.0004C14.9493 19.9908 14.3492 20.6165 14.3492 21.3492V29.0885C14.3492 30.6967 13.0444 32 11.4343 32H10.891C9.29446 32 8 30.7071 8 29.1124V10.8876C8 9.29294 9.29446 8 10.891 8H29.1372C30.7337 8 32.0282 9.29294 32.0282 10.8876ZM65.7136 32C75.8207 32 81.6905 29.5969 84.5288 23.5919C85.0705 22.4458 85.3422 21.1904 85.3422 19.923V10.8876C85.3422 9.29294 84.0477 8 82.4512 8H81.9079C80.2978 8 78.993 9.30332 78.993 10.9115V18.6508C78.993 19.3827 78.3929 20.0092 77.6601 19.9996C76.9274 19.99 76.3633 19.4026 76.3633 18.6867V10.9115C76.3633 9.30332 75.0584 8 73.4484 8H64.205C62.6085 8 61.314 9.29294 61.314 10.8876V29.1124C61.314 30.7071 62.6085 32 64.205 32H65.7256C65.7216 32 65.7176 32 65.7136 32ZM109.109 8H90.8628C89.2663 8 87.9718 9.29294 87.9718 10.8876V11.4303C87.9718 13.0385 89.2767 14.3418 90.8868 14.3418H98.6351C99.3679 14.3418 99.9951 14.9412 99.9855 15.673C99.9759 16.3874 99.3878 16.9684 98.6711 16.9684H90.8868C89.2767 16.9684 87.9718 18.2717 87.9718 19.8799C87.9718 21.1369 88.2403 22.3812 88.7717 23.5201C91.5971 29.5777 97.4741 31.9992 107.621 31.9992C107.616 31.9992 107.612 31.9992 107.607 31.9992H109.109C110.706 31.9992 112 30.7063 112 29.1116V10.8876C112 9.29294 110.706 8 109.109 8ZM58.6852 10.8876V29.1124C58.6852 30.7071 57.3907 32 55.7942 32H37.548C35.9515 32 34.657 30.7071 34.657 29.1124V10.8876C34.657 9.29294 35.9515 8 37.548 8H55.7942C57.3907 8 58.6852 9.29294 58.6852 10.8876ZM55.1598 20.0004C48.928 20.0004 46.6707 17.7465 46.6707 11.5221C46.6707 17.7465 44.4142 20.0004 38.1824 20.0004C44.4142 20.0004 46.6707 22.2543 46.6707 28.4795C46.6707 22.2551 48.9272 20.0004 55.1598 20.0004Z"
        fill="#FAFAFA"></path>
    <path
        d="M32.0282 10.8876V29.1124C32.0282 30.7071 30.7337 32 29.1372 32H19.8938C18.2837 32 16.9789 30.6967 16.9789 29.0885V21.3133C16.9789 20.5966 16.3972 20.01 15.682 20.0004C14.9493 19.9908 14.3492 20.6165 14.3492 21.3492V29.0885C14.3492 30.6967 13.0444 32 11.4343 32H10.891C9.29446 32 8 30.7071 8 29.1124V10.8876C8 9.29294 9.29446 8 10.891 8H29.1372C30.7337 8 32.0282 9.29294 32.0282 10.8876ZM65.7136 32C75.8207 32 81.6905 29.5969 84.5288 23.5919C85.0705 22.4458 85.3422 21.1904 85.3422 19.923V10.8876C85.3422 9.29294 84.0477 8 82.4512 8H81.9079C80.2978 8 78.993 9.30332 78.993 10.9115V18.6508C78.993 19.3827 78.3929 20.0092 77.6601 19.9996C76.9274 19.99 76.3633 19.4026 76.3633 18.6867V10.9115C76.3633 9.30332 75.0584 8 73.4484 8H64.205C62.6085 8 61.314 9.29294 61.314 10.8876V29.1124C61.314 30.7071 62.6085 32 64.205 32H65.7256C65.7216 32 65.7176 32 65.7136 32ZM109.109 8H90.8628C89.2663 8 87.9718 9.29294 87.9718 10.8876V11.4303C87.9718 13.0385 89.2767 14.3418 90.8868 14.3418H98.6351C99.3679 14.3418 99.9951 14.9412 99.9855 15.673C99.9759 16.3874 99.3878 16.9684 98.6711 16.9684H90.8868C89.2767 16.9684 87.9718 18.2717 87.9718 19.8799C87.9718 21.1369 88.2403 22.3812 88.7717 23.5201C91.5971 29.5777 97.4741 31.9992 107.621 31.9992C107.616 31.9992 107.612 31.9992 107.607 31.9992H109.109C110.706 31.9992 112 30.7063 112 29.1116V10.8876C112 9.29294 110.706 8 109.109 8ZM58.6852 10.8876V29.1124C58.6852 30.7071 57.3907 32 55.7942 32H37.548C35.9515 32 34.657 30.7071 34.657 29.1124V10.8876C34.657 9.29294 35.9515 8 37.548 8H55.7942C57.3907 8 58.6852 9.29294 58.6852 10.8876ZM55.1598 20.0004C48.928 20.0004 46.6707 17.7465 46.6707 11.5221C46.6707 17.7465 44.4142 20.0004 38.1824 20.0004C44.4142 20.0004 46.6707 22.2543 46.6707 28.4795C46.6707 22.2551 48.9272 20.0004 55.1598 20.0004Z"
        fill="url(#paint0_diamond_421_21429)" fill-opacity="0.15"></path>
    <defs>
        <radialGradient id="paint0_diamond_421_21429" cx="0" cy="0" r="1" gradientUnits="userSpaceOnUse"
            gradientTransform="translate(67.0975 18.287) rotate(-170.915) scale(67.8061 17.4261)">
            <stop stop-color="#4052E1"></stop>
            <stop offset="0.197917" stop-color="#EBC0D2"></stop>
            <stop offset="1" stop-color="#B5E4FF"></stop>
        </radialGradient>
    </defs>
</svg>