<?xml version="1.0" standalone="no"?>
<svg xmlns:xlink="http://www.w3.org/1999/xlink" xmlns="http://www.w3.org/2000/svg" width="24" height="24" fill="none"
    viewBox="0 0 24 24">
    <path fill="#9e9e9e"
        d="M20.25 18.75h-4.5A2.25 2.25 0 0013.5 21v1.5H15V21a.75.75 0 01.75-.75h4.5A.75.75 0 0121 21v1.5h1.5V21a2.25 2.25 0 00-2.25-2.25zM15 15a3 3 0 105.999 0A3 3 0 0015 15zm4.5 0a1.5 1.5 0 11-3 0 1.5 1.5 0 013 0zM4.5 15.75V15H3v.75A5.25 5.25 0 008.25 21h2.25v-1.5H8.25a3.75 3.75 0 01-3.75-3.75zM19.5 8.25V9H21v-.75A5.25 5.25 0 0015.75 3H13.5v1.5h2.25a3.75 3.75 0 013.75 3.75zM8.25 8.25h-4.5A2.25 2.25 0 001.5 10.5V12H3v-1.5a.75.75 0 01.75-.75h4.5a.75.75 0 01.75.75V12h1.5v-1.5a2.25 2.25 0 00-2.25-2.25zM6 7.5a3 3 0 100-6 3 3 0 000 6zM6 3a1.5 1.5 0 110 3 1.5 1.5 0 010-3z" />
</svg>