<?xml version="1.0" standalone="no"?>
<svg xmlns:xlink="http://www.w3.org/1999/xlink" xmlns="http://www.w3.org/2000/svg" width="24" height="24" fill="none" viewBox="0 0 24 24"><path fill="#9e9e9e" d="M19.5 7.50073H17.4287C17.9169 6.77921 18.1062 5.8965 17.9569 5.03825C17.8076 4.18 17.3313 3.4131 16.6281 2.89886C15.9249 2.38461 15.0497 2.16311 14.1866 2.28093C13.3234 2.39875 12.5396 2.84672 12 3.5306C11.4592 2.8501 10.6761 2.40523 9.8146 2.28917C8.95315 2.17311 8.08021 2.39486 7.37858 2.90797C6.67696 3.42108 6.20107 4.18576 6.05059 5.04187C5.9001 5.89797 6.08669 6.7791 6.57127 7.50073H4.5C4.10233 7.50122 3.72109 7.65942 3.43989 7.94061C3.15869 8.22181 3.0005 8.60305 3 9.00073V12.0007C3.0005 12.3984 3.15869 12.7796 3.43989 13.0608C3.72109 13.342 4.10233 13.5002 4.5 13.5007V21.0007C4.5005 21.3984 4.65869 21.7796 4.93989 22.0608C5.22109 22.342 5.60233 22.5002 6 22.5007H18C18.3977 22.5002 18.7789 22.342 19.0601 22.0608C19.3413 21.7796 19.4995 21.3984 19.5 21.0007V13.5007C19.8977 13.5002 20.2789 13.342 20.5601 13.0608C20.8413 12.7796 20.9995 12.3984 21 12.0007V9.00073C20.9995 8.60305 20.8413 8.22181 20.5601 7.94061C20.2789 7.65942 19.8977 7.50122 19.5 7.50073ZM12.75 5.62573C12.75 5.25489 12.86 4.89237 13.066 4.58403C13.272 4.27569 13.5649 4.03537 13.9075 3.89345C14.2501 3.75154 14.6271 3.71441 14.9908 3.78675C15.3545 3.8591 15.6886 4.03768 15.9508 4.2999C16.213 4.56212 16.3916 4.89622 16.464 5.25993C16.5363 5.62365 16.4992 6.00065 16.3573 6.34326C16.2154 6.68587 15.975 6.9787 15.6667 7.18473C15.3584 7.39076 14.9958 7.50073 14.625 7.50073H12.75V5.62573ZM9.375 3.75073C9.8721 3.75132 10.3487 3.94906 10.7002 4.30056C11.0517 4.65206 11.2494 5.12863 11.25 5.62573V7.50073H9.375C8.87772 7.50073 8.40081 7.30318 8.04917 6.95155C7.69754 6.59992 7.5 6.12301 7.5 5.62573C7.5 5.12845 7.69754 4.65153 8.04917 4.2999C8.40081 3.94827 8.87772 3.75073 9.375 3.75073ZM4.5 9.00073H11.25V12.0007H4.5V9.00073ZM6 13.5007H11.25V21.0007H6V13.5007ZM18.0009 21.0007H12.75V13.5007H18L18.0009 21.0007ZM12.75 12.0007V9.00073H19.5L19.5009 12.0007H12.75Z"/></svg>